<svg xmlns="http://www.w3.org/2000/svg" width="35.528" height="29.21" viewBox="0 0 35.528 29.21"><g transform="translate(0 0)"><path d="M600.549,394.574a1.377,1.377,0,0,0-1.018.43,1.5,1.5,0,0,0,0,2.085,1.376,1.376,0,0,0,1.018.431,1.473,1.473,0,0,0,0-2.946Z" transform="translate(-593.033 -383.763)" fill="#c4b595"/><path d="M656.675,394.517a1.369,1.369,0,0,0-1.016.43,1.493,1.493,0,0,0,0,2.085,1.373,1.373,0,0,0,1.016.43,1.473,1.473,0,0,0,0-2.945Z" transform="translate(-636.865 -383.718)" fill="#c4b595"/><path d="M694.107,394.574a1.379,1.379,0,0,0-1.018.43,1.5,1.5,0,0,0,0,2.085,1.379,1.379,0,0,0,1.018.431,1.473,1.473,0,0,0,0-2.946Z" transform="translate(-666.098 -383.763)" fill="#c4b595"/><path d="M603.025,345.218H575.243a3.885,3.885,0,0,0-3.873,3.873V364.8a3.885,3.885,0,0,0,3.873,3.873h10.909s2.107,5.751,2.874,5.751,3.047-5.751,3.047-5.751h10.951A3.885,3.885,0,0,0,606.9,364.8V349.091A3.886,3.886,0,0,0,603.025,345.218Zm-21.328,14.5a3.4,3.4,0,0,1-4.2.29h-.027v.442h-2.086v-9.1h2.086v3.477h.027a3.428,3.428,0,0,1,2.2-.674,2.757,2.757,0,0,1,2.013.992,3.645,3.645,0,0,1,.813,2.338A2.986,2.986,0,0,1,581.7,359.723Zm4.476.8h-2.127v-5.63a1.354,1.354,0,0,0-1.027-1.47v-2.252s2.981.182,3.154,3.794Zm8.347-1.725a3.3,3.3,0,0,1-.782,1.091,3.561,3.561,0,0,1-1.165.726,3.859,3.859,0,0,1-1.39.253,3.759,3.759,0,0,1-1.369-.253,3.655,3.655,0,0,1-1.166-.726,3.456,3.456,0,0,1-.8-1.1,3.177,3.177,0,0,1,0-2.566,3.474,3.474,0,0,1,.8-1.1,3.654,3.654,0,0,1,1.166-.727,3.746,3.746,0,0,1,1.369-.252,3.847,3.847,0,0,1,1.39.252,3.559,3.559,0,0,1,1.165.727,3.3,3.3,0,0,1,.782,1.091,3.279,3.279,0,0,1,0,2.591Zm8.365.9a4.144,4.144,0,0,1-1.015,3.248,3.621,3.621,0,0,1-3.071.716v-1.652a1.766,1.766,0,0,0,2.013-1.573v-.423h-.025a2.36,2.36,0,0,1-2.094.9,2.688,2.688,0,0,1-2.1-.906,3.52,3.52,0,0,1-.754-2.368,3.92,3.92,0,0,1,.84-2.643,2.876,2.876,0,0,1,2.271-.957,2.457,2.457,0,0,1,1.838.657h.025v-.5h2.073Z" transform="translate(-571.37 -345.218)" fill="#c4b595"/></g></svg>