<svg xmlns="http://www.w3.org/2000/svg" viewBox="0 0 351.66 444.81"><defs><style>.cls-1{opacity:0.3;}.cls-2{fill:#fff;}.cls-3{opacity:0.07;}</style></defs><title>자산 8</title><g id="레이어_2" data-name="레이어 2"><g id="레이어_1-2" data-name="레이어 1"><g class="cls-1"><rect class="cls-2" x="-23.54" y="123.82" width="398.74" height="197.17" transform="translate(-101.07 283.3) rotate(-64.07)"/></g><g class="cls-3"><circle cx="207.56" cy="89.45" r="41.29" transform="translate(-8.46 155.92) rotate(-40.42)"/><path d="M262.25,162a24.27,24.27,0,1,0,11.21,32.44A24.28,24.28,0,0,0,262.25,162Z"/><circle cx="194.94" cy="263.02" r="41.95" transform="translate(-121.42 347.29) rotate(-68.37)"/><polygon points="278.33 100.6 262.8 111.1 262.8 111.11 264.13 129.81 279.67 119.3 279.66 119.3 278.33 100.6"/><polygon points="183.92 169.56 183.92 169.56 185.25 188.26 200.79 177.76 200.78 177.76 199.45 159.05 183.92 169.56"/><polygon points="297.9 149.94 296.57 131.24 281.03 141.74 281.04 141.75 282.37 160.45 297.9 149.94 297.9 149.94"/></g><circle class="cls-2" cx="206.13" cy="86.13" r="41.29"/><circle class="cls-2" cx="250.21" cy="180.45" r="24.26"/><circle class="cls-2" cx="193.51" cy="259.7" r="41.95"/><polygon class="cls-2" points="278.24 115.97 276.9 97.27 261.37 107.78 261.38 107.78 262.71 126.48 278.24 115.98 278.24 115.97"/><polygon class="cls-2" points="199.36 174.43 198.02 155.72 182.49 166.23 182.5 166.23 183.83 184.94 199.36 174.43 199.36 174.43"/><polygon class="cls-2" points="296.47 146.61 295.14 127.91 279.61 138.41 279.61 138.42 280.95 157.12 296.48 146.62 296.47 146.61"/></g></g></svg>