<svg xmlns="http://www.w3.org/2000/svg" viewBox="0 0 378.8 665.4"><defs><style>.cls-1,.cls-6{fill:#fff;}.cls-2{opacity:0.38;}.cls-3{fill:#8e7b59;}.cls-4{fill:#6db1cc;}.cls-5{fill:#a2e0ff;}.cls-6{opacity:0.69;}.cls-7{fill:#ccc;}.cls-8{fill:#eaeaea;}.cls-9{fill:#c14c34;}.cls-10{fill:#8c8c8c;}.cls-11{fill:#d8d8d8;}.cls-12{fill:#ffa8e6;}.cls-13{fill:none;}.cls-14{fill:#e0e0e0;}.cls-15{fill:#d166b8;}.cls-16{fill:#f4f4f4;}</style></defs><title>자산 5</title><g id="레이어_2" data-name="레이어 2"><g id="레이어_1-2" data-name="레이어 1"><circle class="cls-1" cx="238.85" cy="463.4" r="3.5"/><path d="M238.85,460.4a3,3,0,1,1-3,3,3,3,0,0,1,3-3m0-1a4,4,0,1,0,4,4,4,4,0,0,0-4-4Z"/><g class="cls-2"><path class="cls-3" d="M.89,665.4l39.32-10.46s-31.84-58.48,3.9-113.07C-9.95,586.53.89,665.4.89,665.4Z"/><path class="cls-3" d="M44.11,541.87c54.06-44.66,144.6-7.93,144.6-7.93L181,501.8S79.84,487.29,44.11,541.87Z"/><path class="cls-3" d="M277.22,397.91a50.86,50.86,0,1,0-50.85-50.86A50.86,50.86,0,0,0,277.22,397.91Zm0-81.51a30.66,30.66,0,1,1-30.65,30.65A30.66,30.66,0,0,1,277.22,316.4Z"/><path class="cls-3" d="M342.85,460.4a33.28,33.28,0,0,0-19,5h0c-.57.36-1.14.74-1.69,1.13-34.34,22.08-70.55-4.06-70.55-4.06l-1.36,2.22-6.66-3.36h0L240,459.73l-4.87-2L166.43,361.2,154.78,361l52.27,85.23L111.46,407l1.74,10.79,109.21,53.49,7.08,11.55,0,0h0l3.62,5.1-1.17.95s30.68,32.45,13.32,69.4c-.31.6-.61,1.21-.89,1.83h0a33.54,33.54,0,1,0,56.89-7.14l2.81-2.34-6.62-7.92-2.71,2.27-52.61-64.34-1.9,1.54-4.81-6.78,1.64-2a10.17,10.17,0,0,0,2.06-4.46l6.51,3.41-.85,1.38,70.71,43.67-1.89,3,8.72,5.51,2-3.09a33.53,33.53,0,1,0,18.55-62.3Zm-71.42,92.86a20.8,20.8,0,1,1-16.92,24.07A20.84,20.84,0,0,1,271.43,553.26Zm69.22-38.57a20.8,20.8,0,1,1,21.62-19.94A20.84,20.84,0,0,1,340.65,514.69Z"/><path class="cls-3" d="M275.51,40.28A15.91,15.91,0,0,0,271,56.17l63.48,231.05h0l5.14,18.72c1.95,7.07,9.56,11.48,17,9.86l7.8-1.7c7.45-1.63,11.91-8.68,10-15.75l-5.34-19.43h0L305.81,48.58a17.93,17.93,0,0,0-10.64-11.69v0l-5.83-22-4-6L265.16,2.7l10.32,37.57Z"/></g><path class="cls-4" d="M4.66,662.7,44,652.25s-31.83-58.49,3.9-113.07C-6.17,583.83,4.66,662.7,4.66,662.7Z"/><path class="cls-5" d="M184.78,499.1S83.62,484.59,47.88,539.18c54.06-44.66,144.61-7.93,144.61-7.93Z"/><path class="cls-6" d="M281,293.5a50.86,50.86,0,1,0,50.85,50.86A50.86,50.86,0,0,0,281,293.5ZM281,375a30.66,30.66,0,1,1,30.65-30.65A30.65,30.65,0,0,1,281,375Z"/><polygon class="cls-7" points="257.39 463.64 247.39 458.59 247.35 458.6 243.8 457.03 115.24 404.26 116.97 415.05 231.87 471.33 241.8 465.55 252.56 471.18 257.39 463.64"/><path class="cls-8" d="M241.31,458.37l-71.1-99.86-11.66-.25,74.71,121.83,0,0v0l4.49,6.31,7.09-5.8-5.64-7.95,1.64-2.05A10.28,10.28,0,0,0,241.31,458.37Z"/><path class="cls-9" d="M305.06,550.21l2.8-2.34L301.24,540l-2.71,2.27-52.6-64.34-10.2,8.24s30.69,32.46,13.33,69.41c-.32.6-.62,1.2-.9,1.82h0a33.54,33.54,0,1,0,56.9-7.14Zm-22.71,41.33a20.8,20.8,0,1,1,16.92-24.06A20.82,20.82,0,0,1,282.35,591.54Z"/><path class="cls-9" d="M343.9,524.72a33.54,33.54,0,1,0-16.25-62.06h0c-.58.35-1.14.73-1.69,1.12-34.34,22.08-70.56-4.06-70.56-4.06l-6.82,11.2,70.71,43.66-1.89,3,8.72,5.51,1.95-3.09A33.35,33.35,0,0,0,343.9,524.72Zm.52-12.73a20.8,20.8,0,1,1,21.63-19.94A20.82,20.82,0,0,1,344.42,512Z"/><circle class="cls-10" cx="234.22" cy="464.52" r="4.25"/><polygon class="cls-11" points="298.95 34.17 293.12 12.21 289.08 6.25 268.93 0 279.26 37.58 296.47 41.9 298.95 34.17"/><path class="cls-12" d="M348.17,285.44c-6.52.35-9.87-.92-9.87-.92l-63.49-231c-2.5-9.11,3.25-18.2,12.85-20.3h0c9.61-2.09,19.42,3.6,21.93,12.71l63.48,231.06s-2.32,2.5-8.27,4.88"/><polyline class="cls-13" points="304.44 60.69 304.3 63.11 305.68 65.2 305.54 67.62 306.92 69.7 306.78 72.12 308.15 74.21 308.02 76.63 309.39 78.72 309.26 81.14 310.63 83.23 310.5 85.65 311.87 87.74 311.74 90.16 313.11 92.25 312.97 94.67 314.35 96.76 314.21 99.18 315.59 101.27 315.45 103.69 316.83 105.78 316.69 108.2 318.07 110.29 317.93 112.71 319.31 114.8 319.17 117.22 320.55 119.3 320.41 121.72 321.78 123.81 321.65 126.24 323.02 128.33 322.89 130.75 324.26 132.84 324.13 135.25 325.5 137.34 325.37 139.76 326.74 141.86 326.61 144.28 327.98 146.37 327.84 148.78 329.22 150.87 329.08 153.29 330.46 155.38 330.32 157.8 331.7 159.89 331.56 162.31 332.93 164.39 332.8 166.81 334.17 168.9 334.04 171.32 335.41 173.41 335.27 175.83 336.65 177.92 336.51 180.34 337.89 182.43 337.75 184.84 339.13 186.93 338.99 189.35 340.37 191.44 340.23 193.87 341.61 195.96 341.47 198.38 342.85 200.46 342.71 202.88 344.08 204.98 343.95 207.4 345.32 209.49 345.19 211.91 346.56 214 346.43 216.42 347.8 218.51 347.67 220.93 349.04 223.03 348.91 225.45 350.28 227.54 350.15 229.96 351.52 232.05 351.39 234.47 352.76 236.57 352.63 238.99 354.01 241.08 353.87 243.5 355.25 245.59 355.11 248.01 356.49 250.1 356.35 252.52 357.73 254.62 357.59 257.04 358.97 259.13 358.83 261.56 360.21 263.65 360.07 266.07 361.45 268.17 361.31 270.59 362.69 272.69 362.55 275.11 363.93 277.21 363.8 279.63 364.78 281.45"/><ellipse class="cls-14" cx="322.95" cy="161.59" rx="4.4" ry="4.7" transform="translate(92.77 439.84) rotate(-76.98)"/><polygon class="cls-15" points="363.8 279.63 363.93 277.21 362.55 275.11 362.69 272.69 361.31 270.59 361.45 268.17 360.07 266.07 360.21 263.65 358.83 261.56 358.97 259.13 357.59 257.04 357.73 254.62 356.35 252.52 356.49 250.1 355.11 248.01 355.25 245.59 353.87 243.5 354.01 241.08 352.63 238.99 352.76 236.57 351.39 234.47 351.52 232.05 350.15 229.96 350.28 227.54 348.91 225.45 349.04 223.03 347.67 220.93 347.8 218.51 346.43 216.42 346.56 214 345.19 211.91 345.32 209.49 343.95 207.4 344.08 204.98 342.71 202.88 342.85 200.46 341.47 198.38 341.61 195.96 340.23 193.87 340.37 191.44 338.99 189.35 339.13 186.93 337.75 184.84 337.89 182.43 336.51 180.34 336.65 177.92 335.27 175.83 335.41 173.41 334.04 171.32 334.17 168.9 333.41 167.74 316.8 172.39 316.79 172.69 318.16 174.78 318.02 177.2 319.4 179.29 319.26 181.71 320.64 183.8 320.5 186.22 321.88 188.31 321.74 190.73 323.12 192.82 322.98 195.24 324.36 197.33 324.22 199.75 325.59 201.84 325.46 204.26 326.83 206.35 326.7 208.77 328.07 210.86 327.94 213.28 329.31 215.37 329.18 217.79 330.55 219.88 330.42 222.31 331.79 224.4 331.66 226.82 333.03 228.91 332.9 231.33 334.27 233.42 334.14 235.85 335.51 237.94 335.38 240.36 336.75 242.45 336.62 244.88 337.99 246.97 337.86 249.38 339.23 251.47 339.1 253.9 340.47 255.99 340.34 258.41 341.71 260.5 341.58 262.93 342.95 265.02 342.82 267.44 344.2 269.54 344.06 271.96 345.44 274.05 345.3 276.48 346.68 278.57 346.54 281 347.92 283.1 347.99 285.11 364.78 281.45 363.8 279.63"/><path class="cls-11" d="M332.8,166.81l.13-2.42-1.37-2.08.14-2.42-1.38-2.09.14-2.42-1.38-2.09.14-2.42-1.38-2.09.14-2.41-1.37-2.09.13-2.42-1.37-2.09.13-2.43-1.37-2.09.13-2.42-1.37-2.08.13-2.42-1.37-2.09.13-2.42-1.37-2.1.14-2.42-1.38-2.09.14-2.41-1.38-2.09.14-2.42-1.38-2.09.14-2.42-1.38-2.09.14-2.42-1.38-2.09.14-2.42L313,94.67l.14-2.42-1.37-2.09.13-2.42-1.37-2.09.13-2.42-1.37-2.09.13-2.42L308,76.63l.14-2.42-1.38-2.09.14-2.41-1.38-2.09.14-2.42-1.38-2.09-.24-2.34a8.89,8.89,0,0,0-10.48-6.07,7.83,7.83,0,0,0-6.15,9.7l1,2.17L288.29,69l1.38,2.09-.14,2.42,1.37,2.09L290.77,78l1.37,2.09L292,82.51l1.37,2.09L293.25,87l1.37,2.09-.14,2.42,1.38,2.08L295.72,96l1.38,2.09-.14,2.42,1.38,2.09-.14,2.42,1.38,2.09-.14,2.42,1.38,2.09-.14,2.42,1.38,2.09-.14,2.42,1.37,2.09-.13,2.42,1.37,2.09-.13,2.42,1.37,2.09-.13,2.42,1.37,2.09-.13,2.42,1.37,2.09-.14,2.42,1.38,2.09-.14,2.42,1.38,2.09-.14,2.42,1.38,2.09-.14,2.42,1.38,2.09-.14,2.42,1.38,2.09-.14,2.41,1.37,2.09-.13,2.42,1.37,2.08-.12,2.12,16.61-4.65Z"/><path class="cls-1" d="M343.44,303.24c1.94,7.07,9.56,11.48,17,9.86l7.79-1.7c7.45-1.63,11.92-8.68,10-15.75l-5.33-19.43s-2.08,2.23-7.33,4.48a10.72,10.72,0,0,0-11.06-4.32,9.39,9.39,0,0,0-7.57,8.39c-5.82.16-8.82-1-8.82-1Z"/><circle class="cls-16" cx="322.66" cy="161.55" r="4"/><path class="cls-1" d="M323.54,163.74h0a11.33,11.33,0,0,1,13.34,7.74l12,43.76a10,10,0,0,1-7.83,12.35h0a11.33,11.33,0,0,1-13.34-7.73l-12-43.76A10,10,0,0,1,323.54,163.74Z"/></g></g></svg>