<svg xmlns="http://www.w3.org/2000/svg" viewBox="0 0 467.22 230.53"><defs><style>.cls-1{opacity:0.38;}.cls-2{fill:#8e7b59;}.cls-3{fill:#d8f340;}.cls-4{fill:#aab730;}</style></defs><title>자산 7</title><g id="레이어_2" data-name="레이어 2"><g id="레이어_1-2" data-name="레이어 1"><g class="cls-1"><path class="cls-2" d="M41.76,6.17,0,15S13.6,70,106.37,94.89c19.78,5.3,35.17,7,48.06,6.59C83.26,83.23,41.76,6.17,41.76,6.17Z"/><path class="cls-2" d="M288.55,76.89l1.76.18c94.93,10.79,126,153.46,126,153.46l47.91-26.07S393.11,64.35,288.55,76.89Z"/><path class="cls-2" d="M154.5,101.48l0,0c26.9,6.88,58,5.35,92.76-11.92a125.82,125.82,0,0,1,41.27-12.69C215.46,69.1,201.65,99.84,154.5,101.48Z"/></g><path class="cls-3" d="M44.78,0,3,8.84s13.61,55,106.38,79.89c19.78,5.29,35.16,7,48.06,6.58C86.29,77.07,44.78,0,44.78,0Z"/><path class="cls-3" d="M291.57,70.72l1.77.19c94.92,10.79,126,153.45,126,153.45l47.91-26.07S396.14,58.19,291.57,70.72Z"/><path class="cls-4" d="M157.53,95.31v0c26.9,6.87,58,5.34,92.76-11.92a126.23,126.23,0,0,1,41.27-12.7C218.48,62.93,204.67,93.67,157.53,95.31Z"/></g></g></svg>