<svg xmlns="http://www.w3.org/2000/svg" viewBox="0 0 356.79 308.57"><defs><style>.cls-1{fill:#fff586;}.cls-2{fill:#bcad44;}.cls-3{fill:#898989;}.cls-4{fill:#d8d8d8;}</style></defs><title>자산 6</title><g id="레이어_2" data-name="레이어 2"><g id="레이어_1-2" data-name="레이어 1"><path class="cls-1" d="M218.11,103.77,195.63,66.54s-1.64,27.72,16.26,72C219.38,157,234,173,250.45,185,216.33,156.73,218.11,103.77,218.11,103.77Z"/><path class="cls-2" d="M334,154.11s-14.06,63.79-66.13,41.52c-1.08-.46-2.12-.94-3.14-1.44,18.92,10.65,38.31,15.89,51.06,13.73,27.53-4.65,41-28.73,41-28.73Z"/><path class="cls-3" d="M25.83,304.13l89.39-200.71s6.42-11.25,9.69-21.78,8.94-45.39,21.57-53.17S179.33,8.54,179.33,8.54s-37,11.75-43,18.94-31.19,57.35-31.19,57.35S93.83,96,89.45,94.77L0,294s1,10.34,9.54,13.42S24.79,306.49,25.83,304.13Z"/><path class="cls-4" d="M26.64,303.16,105.5,98.08s5.83-11.57,8.55-22.25,6.57-45.8,18.78-54.22S164.61,0,164.61,0s-36.31,13.65-42,21.14S94.49,80,94.49,80,83.75,91.79,79.31,90.77L.32,294.41s1.58,10.27,10.23,12.91S25.72,305.56,26.64,303.16Z"/></g></g></svg>