<svg xmlns="http://www.w3.org/2000/svg" width="162.088" height="54.847" viewBox="0 0 162.088 54.847"><g transform="translate(-64.264 -719.976)"><text transform="translate(64.264 768.823)" fill="#70a8f1" font-size="22" font-family="S-CoreDream-7ExtraBold, 'S-Core Dream \37 '" font-weight="800" letter-spacing="0.008em"><tspan x="0" y="0">PHOTO CARD</tspan></text><g transform="translate(184.04 720.976)"><path d="M169.748,731.282H153.387a4.987,4.987,0,0,0-4.981,4.981v5.9h3.3v-5.9a1.683,1.683,0,0,1,1.682-1.682h16.362a1.683,1.683,0,0,1,1.681,1.682v16.362a1.682,1.682,0,0,1-1.681,1.681h-3.157a3.821,3.821,0,1,0,0,3.3h3.157a4.984,4.984,0,0,0,4.979-4.979V736.263A4.985,4.985,0,0,0,169.748,731.282Z" transform="translate(-132.415 -715.285)" fill="#70a8f1"/><path d="M142.614,742.317V725.955a1.684,1.684,0,0,1,1.684-1.681H160.66a1.682,1.682,0,0,1,1.681,1.681v2.617a3.821,3.821,0,1,0,3.3,0v-2.617a4.984,4.984,0,0,0-4.979-4.979H144.3a4.987,4.987,0,0,0-4.982,4.979v16.362a4.988,4.988,0,0,0,4.982,4.98h5.9V744h-5.9A1.684,1.684,0,0,1,142.614,742.317Z" transform="translate(-138.316 -721.976)" fill="#70a8f1"/></g></g></svg>