<svg xmlns="http://www.w3.org/2000/svg" viewBox="0 0 80.09 25.93"><defs><style>.cls-1{fill:#383838;}</style></defs><title>자산 104</title><g id="레이어_2" data-name="레이어 2"><g id="레이어_1-2" data-name="레이어 1"><path class="cls-1" d="M39.26,6.31V9.67h-2V.13H41A4.31,4.31,0,0,1,42.9.52a3.05,3.05,0,0,1,1.26,1.12,3.12,3.12,0,0,1,.43,1.65,2.74,2.74,0,0,1-1,2.21A4,4,0,0,1,41,6.31Zm0-1.59H41a1.75,1.75,0,0,0,1.19-.37,1.33,1.33,0,0,0,.41-1,1.58,1.58,0,0,0-.41-1.13,1.56,1.56,0,0,0-1.14-.45h-1.8Z"/><path class="cls-1" d="M53.71,9.67h-2V5.58H47.91V9.67h-2V.13h2V4h3.83V.13h2Z"/><path class="cls-1" d="M63.26,5.12a5.79,5.79,0,0,1-.5,2.47,3.71,3.71,0,0,1-1.42,1.63,4.2,4.2,0,0,1-4.24,0A3.78,3.78,0,0,1,55.65,7.6a5.5,5.5,0,0,1-.51-2.43V4.7a5.84,5.84,0,0,1,.5-2.48A3.81,3.81,0,0,1,57.08.57a4.23,4.23,0,0,1,4.24,0,3.79,3.79,0,0,1,1.43,1.65,5.68,5.68,0,0,1,.51,2.47Zm-2-.44a4,4,0,0,0-.54-2.28,1.9,1.9,0,0,0-3.06,0,4,4,0,0,0-.54,2.26v.47a4,4,0,0,0,.54,2.26,1.87,1.87,0,0,0,3.06,0,3.93,3.93,0,0,0,.54-2.26Z"/><path class="cls-1" d="M71.31,1.72H68.39v8h-2V1.72H63.54V.13h7.77Z"/><path class="cls-1" d="M80.09,5.12a5.79,5.79,0,0,1-.5,2.47,3.73,3.73,0,0,1-1.43,1.63A3.85,3.85,0,0,1,76,9.8a4,4,0,0,1-2.12-.57A3.76,3.76,0,0,1,72.48,7.6,5.64,5.64,0,0,1,72,5.17V4.7a5.69,5.69,0,0,1,.51-2.48A3.86,3.86,0,0,1,73.9.57,4,4,0,0,1,76,0a3.93,3.93,0,0,1,2.12.57,3.81,3.81,0,0,1,1.44,1.65,5.68,5.68,0,0,1,.51,2.47Zm-2-.44a4.09,4.09,0,0,0-.53-2.28A1.76,1.76,0,0,0,76,1.62a1.74,1.74,0,0,0-1.52.77A4,4,0,0,0,74,4.65v.47a4,4,0,0,0,.54,2.26,1.88,1.88,0,0,0,3.07,0,4,4,0,0,0,.53-2.26Z"/><path class="cls-1" d="M44.78,22.59A3.42,3.42,0,0,1,43.64,25a4,4,0,0,1-2.7.88,3.61,3.61,0,0,1-2.89-1.23,5.09,5.09,0,0,1-1-3.39v-.59a5.62,5.62,0,0,1,.49-2.42,3.64,3.64,0,0,1,1.38-1.61,4.33,4.33,0,0,1,4.76.33,3.6,3.6,0,0,1,1.16,2.48h-2a2,2,0,0,0-.52-1.34A1.87,1.87,0,0,0,41,17.71a1.69,1.69,0,0,0-1.48.71A4,4,0,0,0,39,20.6v.72a4.23,4.23,0,0,0,.47,2.26,1.64,1.64,0,0,0,1.48.72,1.93,1.93,0,0,0,1.36-.42,1.85,1.85,0,0,0,.51-1.29Z"/><path class="cls-1" d="M51.45,23.81H48l-.66,2H45.26l3.55-9.54h1.83l3.57,9.54H52.12Zm-2.91-1.6h2.38l-1.2-3.57Z"/><path class="cls-1" d="M58.63,22.28H57.06v3.49h-2V16.23h3.54a4,4,0,0,1,2.61.76,2.6,2.6,0,0,1,.92,2.13,2.69,2.69,0,0,1-1.71,2.66l2.07,3.9v.09H60.42Zm-1.57-1.59h1.59a1.62,1.62,0,0,0,1.14-.38,1.32,1.32,0,0,0,.41-1,1.46,1.46,0,0,0-.38-1.06,1.6,1.6,0,0,0-1.18-.39H57.06Z"/><path class="cls-1" d="M63.66,25.77V16.23H66.6a4.48,4.48,0,0,1,2.25.57,4,4,0,0,1,1.55,1.61A5,5,0,0,1,71,20.79v.44a5,5,0,0,1-.54,2.36,3.94,3.94,0,0,1-1.55,1.61,4.42,4.42,0,0,1-2.24.57Zm2-7.95v6.37h1a2.14,2.14,0,0,0,1.76-.75A3.45,3.45,0,0,0,69,21.28v-.5a3.49,3.49,0,0,0-.6-2.21,2.15,2.15,0,0,0-1.76-.75Z"/><rect class="cls-1" x="30.03" width="1.82" height="25.9"/><path class="cls-1" d="M0,0V25.93H24.75V0ZM21.74,22.65H11.22v-11H21.74Z"/></g></g></svg>